<svg xmlns="http://www.w3.org/2000/svg" version="1.1" xmlns:xlink="http://www.w3.org/1999/xlink" xmlns:svgjs="http://svgjs.dev/svgjs" width="1500" height="1500" viewBox="0 0 1500 1500"><rect width="1500" height="1500" fill="#000000"></rect><g transform="matrix(0.6666666666666666,0,0,0.6666666666666666,249.48043313129398,595.3849443559918)"><svg viewBox="0 0 396 123" data-background-color="#f39237" preserveAspectRatio="xMidYMid meet" height="465" width="1500" xmlns="http://www.w3.org/2000/svg" xmlns:xlink="http://www.w3.org/1999/xlink"><g id="tight-bounds" transform="matrix(1,0,0,1,0.27425151999250375,-0.15273598640965247)"><svg viewBox="0 0 395.52 123.30547197281932" height="123.30547197281932" width="395.52"><g><svg viewBox="0 0 395.52 123.30547197281932" height="123.30547197281932" width="395.52"><g><svg viewBox="0 0 395.52 123.30547197281932" height="123.30547197281932" width="395.52"><g><svg viewBox="0 0 622.8759601008769 194.18490655532364" height="123.30547197281932" width="395.52"><g transform="matrix(1,0,0,1,227.35596010087687,26.83742196242173)"><svg viewBox="0 0 395.52 140.51006263048018" height="140.51006263048018" width="395.52"><g id="textblocktransform"><svg viewBox="0 0 395.52 140.51006263048018" height="140.51006263048018" width="395.52" id="textblock"><g><svg viewBox="0 0 395.52 140.51006263048018" height="140.51006263048018" width="395.52"><g transform="matrix(1,0,0,1,0,0)"><svg width="395.52" viewBox="1 -29.6 143.68 51.05" height="140.51006263048018" data-palette-color="#ffffff"><path d="M16.1-29.6L16.1-29.6 16.6-29.6Q18-29.6 18.2-27.95L18.2-27.95Q18.2-26.5 14.25-26.5L14.25-26.5Q7.9-24.1 5.7-19.5L5.7-19.5 5.35-18.05 5.35-17.75Q5.35-15.55 8.3-15.55L8.3-15.55 13.8-15.85Q19.35-15.85 21.3-10.45L21.3-10.45 21.6-8.7Q21.6-3.5 13.2 0.8L13.2 0.8Q10.7 1.5 8.8 1.75L8.8 1.75Q3.7 1.75 1.6-4L1.6-4Q1-5.95 1-7.95L1-7.95Q1-8.55 1.95-9.2L1.95-9.2 2.55-9.2Q4.1-9.2 4.1-5.25L4.1-5.25Q5.4-1.35 8.2-1.35L8.2-1.35 9.55-1.35Q13.6-1.35 17.55-6.05L17.55-6.05Q18.6-7.55 18.6-9.3L18.6-9.3Q18.6-11.75 14.75-12.75L14.75-12.75 14.55-12.75 8-12.6Q2.55-13.25 2.55-17.1L2.55-17.1 2.35-17.75Q2.35-22.9 10.05-27.75L10.05-27.75Q13.4-29.6 16.1-29.6ZM25.7-15.05L25.7-15.05 26.6-15.55Q27.8-15.55 28.35-14.1L28.35-14.1Q27.55-10.4 27.55-6.5L27.55-6.5Q27.55-4.55 28.7-2.25L28.7-2.25 29-2.25Q30.45-2.25 32.45-13.7L32.45-13.7Q33.15-14.3 33.8-14.3L33.8-14.3Q35.35-14.3 35.35-8.8L35.35-8.8Q36-2.75 36.8-2.75L36.8-2.75 37.55-3.05Q39-2.5 39-1.5L39-1.5Q38.1 0.4 36.5 0.4L36.5 0.4Q34.7 0.4 33.05-3.2L33.05-3.2Q31.05 1 29 1L29 1Q25.95 1 24.75-5.35L24.75-5.35 24.6-6.95 24.6-7.45Q24.6-11.45 25.7-15.05ZM46.55-16.85L46.55-16.85Q50.8-16.5 50.8-12.7L50.8-12.7 50.89-12.05 50.8-4.25Q50.8-2.9 52.34-0.6L52.34-0.6 52.34-0.5Q51.95 0.95 50.89 0.95L50.89 0.95Q47.8-0.35 47.8-4.55L47.8-4.55 47.8-5.2 47.64-5.3 47.8-5.5 47.8-5.6 47.95-12.5Q47.95-13.95 46.7-13.95L46.7-13.95 46.09-13.95Q43.59-12.95 43.59-3L43.59-3Q43.59 0.45 41.84 0.45L41.84 0.45Q40.49 0.45 40.45-1.25L40.45-1.25 40.45-6.25Q40.45-15.95 42.14-15.95L42.14-15.95 42.64-16.1 43.7-15.95Q45.05-16.85 46.55-16.85ZM60.39-16.85L60.39-16.85Q64.64-16.5 64.64-12.7L64.64-12.7 64.74-12.05 64.64-4.25Q64.64-2.9 66.19-0.6L66.19-0.6 66.19-0.5Q65.79 0.95 64.74 0.95L64.74 0.95Q61.64-0.35 61.64-4.55L61.64-4.55 61.64-5.2 61.49-5.3 61.64-5.5 61.64-5.6 61.79-12.5Q61.79-13.95 60.54-13.95L60.54-13.95 59.94-13.95Q57.44-12.95 57.44-3L57.44-3Q57.44 0.45 55.69 0.45L55.69 0.45Q54.34 0.45 54.29-1.25L54.29-1.25 54.29-6.25Q54.29-15.95 55.99-15.95L55.99-15.95 56.49-16.1 57.54-15.95Q58.89-16.85 60.39-16.85ZM69.34-15L69.34-15Q71.09-15 71.74-7.3L71.74-7.3Q72.59-3.75 72.99-3.75L72.99-3.75 73.29-3.75Q74.54-6.9 74.54-10L74.54-10 74.24-13.45Q74.79-14.8 75.79-14.8L75.79-14.8Q77.64-14.8 77.64-8.25L77.64-8.25Q78.74-1.45 78.74 4.4L78.74 4.4 78.74 6.75Q78.74 17.5 72.64 21.25L72.64 21.25 71.54 21.45Q68.69 21.45 66.24 16.15L66.24 16.15 65.79 13.15 65.79 13Q65.79 9.7 67.64 9.7L67.64 9.7 68.89 10.5 68.74 13.65Q68.74 15.95 71.09 18.3L71.09 18.3 71.74 18.3Q74.49 18.3 75.79 7.8L75.79 7.8 75.89 4.9Q75.84-0.15 75.49-1.55L75.49-1.55Q73.49 0.2 72.34 0.2L72.34 0.2Q69.79 0.2 67.79-13.45L67.79-13.45 67.64-13.55Q67.64-14.7 69.34-15ZM85.79-29.2L85.79-29.2Q92.84-29.2 99.39-21.7L99.39-21.7Q101.39-17.75 101.39-14.05L101.39-14.05Q101.39-5.35 92.54-1.25L92.54-1.25Q89.69 0 86.39 0L86.39 0 85.14 0Q83.29-0.05 83.29-1.55L83.29-1.55 83.14-1.55Q83.14-2.9 84.84-2.95L84.84-2.95 85.99-2.95 85.99-3.25 86.09-3.25Q82.99-16.4 82.99-22.8L82.99-22.8 82.84-22.8 81.59-22Q80.29-22 80.04-23.75L80.04-23.75Q80.04-26.5 83.14-28.55L83.14-28.55Q84.39-29.2 85.79-29.2ZM86.39-26.25L86.39-26.25 85.99-26.25 85.99-23.85Q85.99-15.65 89.09-3.25L89.09-3.25 89.24-3.25Q98.49-5.75 98.49-14.05L98.49-14.05Q98.49-22.95 88.14-25.95L88.14-25.95Q87.54-26.25 86.39-26.25ZM112.69-19.3L112.69-19.3Q114.89-19.3 114.89-17.55L114.89-17.55 114.44-16.6 114.14-7.45Q114.14-1.25 116.64 0.25L116.64 0.25 116.74 1Q116.59 2.45 115.39 2.45L115.39 2.45 115.09 2.45Q111.34-0.1 111.34-5.35L111.34-5.35 110.99-5.35Q108.99 0.25 106.14 0.25L106.14 0.25Q103.49-0.5 103.49-3.7L103.49-3.7Q103.49-10.75 109.14-17.75L109.14-17.75Q111.04-19.3 112.69-19.3ZM106.64-5.7L106.64-5.7 106.44-4.3 106.44-3.35 106.94-3.35Q110.69-12.7 110.69-14.75L110.69-14.75 110.49-14.75Q107.59-11.5 106.64-5.7ZM119.53-15L119.53-15Q121.28-15 121.93-7.3L121.93-7.3Q122.78-3.75 123.18-3.75L123.18-3.75 123.48-3.75Q124.73-6.9 124.73-10L124.73-10 124.43-13.45Q124.98-14.8 125.98-14.8L125.98-14.8Q127.83-14.8 127.83-8.25L127.83-8.25Q128.93-1.45 128.93 4.4L128.93 4.4 128.93 6.75Q128.93 17.5 122.83 21.25L122.83 21.25 121.73 21.45Q118.88 21.45 116.43 16.15L116.43 16.15 115.98 13.15 115.98 13Q115.98 9.7 117.83 9.7L117.83 9.7 119.08 10.5 118.93 13.65Q118.93 15.95 121.28 18.3L121.28 18.3 121.93 18.3Q124.68 18.3 125.98 7.8L125.98 7.8 126.08 4.9Q126.03-0.15 125.68-1.55L125.68-1.55Q123.68 0.2 122.53 0.2L122.53 0.2Q119.98 0.2 117.98-13.45L117.98-13.45 117.83-13.55Q117.83-14.7 119.53-15ZM141.23-20.25L141.23-20.25Q142.58-20.25 143.08-15.7L143.08-15.7Q142.58-14.45 141.43-14.45L141.43-14.45Q140.63-14.6 139.83-16.3L139.83-16.3 138.93-16.6Q136.58-16.6 134.68-13.5L134.68-13.5 134.68-13.05Q134.68-12.3 141.73-10.55L141.73-10.55Q144.68-8.8 144.68-6.3L144.68-6.3Q144.68-2.2 138.08 0.7L138.08 0.7 136.23 1Q132.03 0.55 132.03-3.2L132.03-3.2 132.03-3.35Q132.03-4.55 133.58-4.75L133.58-4.75Q134.78-4.75 135.18-2.25L135.18-2.25 135.58-1.95 136.43-1.95Q139.28-1.95 141.73-5.85L141.73-5.85 141.73-6.5Q141.73-8 135.18-9.3L135.18-9.3Q131.73-10.7 131.73-13.2L131.73-13.2Q131.73-16.45 137.18-19.3L137.18-19.3Q139.58-19.6 141.23-20.25Z" opacity="1" transform="matrix(1,0,0,1,0,0)" fill="#ffffff" class="wordmark-text-0" data-fill-palette-color="primary" id="text-0"></path></svg></g></svg></g></svg></g></svg></g><g><svg viewBox="0 0 194.18490655532364 194.18490655532364" height="194.18490655532364" width="194.18490655532364"><g><svg xmlns="http://www.w3.org/2000/svg" xmlns:xlink="http://www.w3.org/1999/xlink" version="1.1" x="0" y="0" viewBox="5 5 90 90" enable-background="new 0 0 100 100" xml:space="preserve" height="194.18490655532364" width="194.18490655532364" class="icon-icon-0" data-fill-palette-color="accent" id="icon-0"><path d="M85.75 95" fill="#ffffff" data-fill-palette-color="accent"></path><path d="M50 25c-13.807 0-25 11.193-25 25s11.193 25 25 25 25-11.193 25-25S63.807 25 50 25zM50 71.5c-11.874 0-21.5-9.626-21.5-21.5S38.126 28.5 50 28.5 71.5 38.126 71.5 50 61.874 71.5 50 71.5z" fill="#ffffff" data-fill-palette-color="accent"></path><g fill="#ffffff" data-fill-palette-color="accent"><rect x="6.75" y="48.25" width="6.5" height="3.5" fill="#ffffff" data-fill-palette-color="accent"></rect><circle cx="6.75" cy="50" r="1.8" fill="#ffffff" data-fill-palette-color="accent"></circle><circle cx="13.25" cy="50" r="1.8" fill="#ffffff" data-fill-palette-color="accent"></circle></g><g fill="#ffffff" data-fill-palette-color="accent"><rect x="86.75" y="48.25" width="6.5" height="3.5" fill="#ffffff" data-fill-palette-color="accent"></rect><circle cx="86.75" cy="50" r="1.8" fill="#ffffff" data-fill-palette-color="accent"></circle><circle cx="93.25" cy="50" r="1.8" fill="#ffffff" data-fill-palette-color="accent"></circle></g><g fill="#ffffff" data-fill-palette-color="accent"><rect x="48.25" y="6.75" width="3.5" height="6.5" fill="#ffffff" data-fill-palette-color="accent"></rect><circle cx="50" cy="6.75" r="1.8" fill="#ffffff" data-fill-palette-color="accent"></circle><circle cx="50" cy="13.25" r="1.8" fill="#ffffff" data-fill-palette-color="accent"></circle></g><g fill="#ffffff" data-fill-palette-color="accent"><rect x="48.25" y="86.75" width="3.5" height="6.5" fill="#ffffff" data-fill-palette-color="accent"></rect><circle cx="50" cy="86.75" r="1.8" fill="#ffffff" data-fill-palette-color="accent"></circle><circle cx="50" cy="93.25" r="1.8" fill="#ffffff" data-fill-palette-color="accent"></circle></g><g fill="#ffffff" data-fill-palette-color="accent"><rect x="75.034" y="19.966" transform="matrix(0.7071 -0.7071 0.7071 0.7071 7.5736 61.7157)" width="6.5" height="3.5" fill="#ffffff" data-fill-palette-color="accent"></rect><circle cx="80.582" cy="19.418" r="1.8" fill="#ffffff" data-fill-palette-color="accent"></circle><circle cx="75.986" cy="24.014" r="1.8" fill="#ffffff" data-fill-palette-color="accent"></circle></g><g fill="#ffffff" data-fill-palette-color="accent"><rect x="18.466" y="76.534" transform="matrix(0.7071 -0.7071 0.7071 0.7071 -48.9949 38.2843)" width="6.5" height="3.5" fill="#ffffff" data-fill-palette-color="accent"></rect><circle cx="24.014" cy="75.986" r="1.8" fill="#ffffff" data-fill-palette-color="accent"></circle><circle cx="19.418" cy="80.582" r="1.8" fill="#ffffff" data-fill-palette-color="accent"></circle></g><g fill="#ffffff" data-fill-palette-color="accent"><rect x="75.034" y="76.534" transform="matrix(0.7071 0.7071 -0.7071 0.7071 78.2842 -32.4263)" width="6.5" height="3.5" fill="#ffffff" data-fill-palette-color="accent"></rect><circle cx="80.582" cy="80.582" r="1.8" fill="#ffffff" data-fill-palette-color="accent"></circle><circle cx="75.986" cy="75.986" r="1.8" fill="#ffffff" data-fill-palette-color="accent"></circle></g><g fill="#ffffff" data-fill-palette-color="accent"><rect x="18.466" y="19.966" transform="matrix(0.7071 0.7071 -0.7071 0.7071 21.7157 -8.9949)" width="6.5" height="3.5" fill="#ffffff" data-fill-palette-color="accent"></rect><circle cx="24.014" cy="24.014" r="1.8" fill="#ffffff" data-fill-palette-color="accent"></circle><circle cx="19.418" cy="19.418" r="1.8" fill="#ffffff" data-fill-palette-color="accent"></circle></g></svg></g></svg></g></svg></g></svg></g></svg></g><defs></defs></svg><rect width="395.52" height="123.30547197281932" fill="none" stroke="none" visibility="hidden"></rect></g></svg></g></svg>